<?xml version="1.0" encoding="utf-8"?>
<!-- Generator: Adobe Illustrator 18.0.0, SVG Export Plug-In . SVG Version: 6.00 Build 0)  -->
<!DOCTYPE svg PUBLIC "-//W3C//DTD SVG 1.1//EN" "http://www.w3.org/Graphics/SVG/1.1/DTD/svg11.dtd">
<svg version="1.1" id="Layer_1" xmlns="http://www.w3.org/2000/svg" xmlns:xlink="http://www.w3.org/1999/xlink" x="0px" y="0px"
	 viewBox="0 0 283.3 66.4" enable-background="new 0 0 283.3 66.4" xml:space="preserve">
<g>
	<g>
		<path d="M278.3,21.6h-0.8v-0.4h2.1v0.4h-0.8v3.2h-0.5V21.6z"/>
		<path d="M280.1,21.2h0.7l0.9,2.9h0l0.9-2.9h0.7v3.6h-0.4v-3.1h0l-1,3.1h-0.3l-1-3.1h0v3.1h-0.4V21.2z"/>
	</g>
	<g>
		<polygon fill="#917F76" points="59,33.5 92.4,0 73.3,0 39.9,33.5 51.7,33.5 84.7,66.4 103.8,66.4 70.8,33.5 		"/>
	</g>
	<path d="M70.7,33.5l24.7,24.7h19.1L89.8,33.5H77.9l25.1-25.1H84L58.8,33.5H70.7z"/>
	<g>
		<path stroke="#000000" stroke-width="0.8119" d="M7.7,25.2c-0.1-1.1-0.1-1.6-2.9-1.6c-0.5,0-1.4,0-1.8,0.1
			c-0.1,0.9-0.1,2.6-0.1,2.9V28c0.8,0.1,1,0.1,1.8,0.1c2.3,0,2.3-0.2,2.3-1l0.3,0c0,0.3,0,0.4,0,1c0,0.1,0,0.8,0,1.7H7
			c0-0.2,0-0.8-0.1-0.9c-0.3-0.2-1.3-0.3-2.5-0.3c-0.5,0-1,0-1.4,0c0,0.8,0,1.7,0,2.7c0,1.7,0,1.9,1.7,2.1v0.3c-0.3,0-0.7,0-1.8,0
			H2.1c-0.1,0-0.9,0-1.5,0.1l0-0.3c0.8-0.1,0.9-0.4,1-0.7c0.2-1,0.2-2.5,0.2-4.4c0-0.8,0-3.7-0.2-4.3c-0.1-0.4-0.5-0.5-1.1-0.5v-0.3
			h1c0.4,0,1.1,0.1,1.5,0.1c0.6,0,1.3,0,1.5,0c1.4,0,2.9-0.1,3.7-0.1c-0.1,0.7-0.1,1.3-0.1,2H7.7z"/>
		<path stroke="#000000" stroke-width="0.8119" d="M12.2,29.5c-0.5,0-1,0-1.5-0.1l0,1.6c0,0.5,0,1.7,0.2,2c0.1,0.2,0.2,0.3,0.8,0.4
			c0.1,0,0.1,0,0.1,0.1c0,0.1,0,0.1-0.1,0.1c-0.1,0-0.3,0-0.6-0.1c-0.3,0-0.6-0.1-0.7-0.1c-0.3,0-0.7,0-0.9,0c-0.3,0-0.5,0-0.5,0
			c-0.1,0-0.1,0-0.1-0.1c0-0.1,0-0.1,0.3-0.2c0.5-0.1,0.7-0.3,0.7-2.4v-3c0-2.7,0-2.7-1-2.8c0-0.1,0-0.2,0-0.2c0.4,0,0.7,0,0.9,0
			c0.4,0,2.1-0.2,2.5-0.2c1.9,0,3,1.2,3,2.3c0,0.9-0.6,1.7-1.9,2.2l0.3,0.5c1.3,1.9,2.5,3.8,3.9,3.9c0.1,0,0.1,0,0.1,0.1
			c0,0.1,0,0.1-0.3,0.1c-1.8,0-3.2-1.7-4.4-3.4L12.2,29.5z M12,25.2c-0.3,0-1,0.1-1.1,0.3c-0.1,0.3-0.1,2.4-0.1,3.6
			c0.2,0,0.4,0.1,1.1,0.1c0.5,0,2.3,0,2.3-1.8C14.2,26.6,13.6,25.2,12,25.2z"/>
		<path stroke="#000000" stroke-width="0.8119" d="M24.3,30.6h-0.2c0-1.2-0.3-1.2-2.5-1.2c-0.7,0-1,0-1.2,0.1l0,0.9
			c0,0.5,0,1.9,0.1,2.7c0.3,0.1,0.6,0.2,1.7,0.2c2.1,0,2.7-0.4,3.1-1.6h0.2c-0.2,1-0.3,1.4-0.6,2c-0.3,0-1,0-1.7,0
			c-0.7,0-1.3,0-1.3,0c-1.3,0-2.7,0.1-3.6,0.1l0-0.2c0.8-0.2,0.8-0.2,0.9-0.7c0.1-0.7,0.2-3,0.2-3.5l0-2.1c0-1.8-0.1-1.8-0.9-2
			l0-0.2h4.3c0.5,0,1.5,0,2.2-0.1c-0.1,0.9-0.2,1.5-0.3,1.7l-0.2-0.1c0-0.1,0.1-0.5,0.1-0.6c0-0.7-1.4-0.8-2-0.8
			c-0.9,0-1.5,0.1-2.1,0.1c-0.1,0.5-0.1,1.1-0.1,1.9c0,0.6,0,1.5,0,1.7c0.2,0,0.6,0,1,0c0.7,0,1.6,0,1.9-0.1
			c0.5-0.1,0.6-0.1,0.8-0.9h0.2V30.6z"/>
		<path stroke="#000000" stroke-width="0.8119" d="M30.1,33.6c-0.3,0-1.4,0-1.6,0c-0.4,0-2,0-2.4,0v-0.2c0.4,0,0.7-0.1,0.9-0.3
			c0.2-0.4,0.2-2.7,0.2-3.3c0-2.3,0-3.8-0.2-4.2c-0.1-0.2-0.4-0.2-0.7-0.2l0-0.3c1,0,2,0,3-0.1c0.4,0,0.6-0.1,0.9-0.1
			c2.6,0,5.1,1.6,5.1,4.3C35.2,31.7,33.2,33.6,30.1,33.6z M30,25.2c-0.6,0-1.2,0.1-1.7,0.3c-0.1,0.6-0.1,4.4-0.1,5.5
			c0,0.3,0,1.6,0,1.9c0.7,0.2,1.1,0.4,2,0.4c3,0,4-2.2,4-4.1C34.1,26.6,31.9,25.2,30,25.2z"/>
	</g>
	<g>
		<path stroke="#000000" stroke-width="0.8119" d="M111.3,28.5c0,0.5,0,0.8,0.1,2.7c0.1,1.8,0.2,2.1,1.4,2.1v0.3h-1.4h-1.1
			c-1,0-1.3,0.1-1.5,0.1l0-0.3c1.2-0.3,1.5-0.5,1.5-2.5c0-0.3,0-0.6,0-1l-0.1-2.2c0-1,0-1.4-0.2-2.6h0c-0.5,0.9-2.4,4.4-3.1,6
			c-0.4,0.9-0.8,1.7-1,2.4h-0.3c-0.2-0.5-0.5-1.7-1.3-3.1c-0.9-1.8-1.8-3.5-2.7-5.3h0c-0.1,1-0.4,4-0.4,7.1c0,0.8,0.1,1.1,1.5,1.2
			l0,0.3c-0.1,0-0.4,0-0.6,0c-0.2,0-0.5,0-0.5,0l-1,0c-0.2,0-1.4,0-1.6,0l0-0.2c1.5-0.3,1.6-0.8,1.7-2.9l0.2-4.2c0-0.3,0-0.5,0-0.8
			c0-1.7-0.7-2-1.9-2l0-0.3c0.2,0,0.7,0.1,1.1,0.1c0.5,0,0.9,0,1.2,0h0.7c0.6,1.6,0.7,1.8,4,8c0.3-0.5,0.5-0.8,1.2-2.2
			c0.4-0.8,2.7-4.9,3.1-5.9h2.3l0,0.3c-1.4,0.2-1.5,0.3-1.5,2.7L111.3,28.5z"/>
		<path stroke="#000000" stroke-width="0.8119" d="M119.8,30c0.4,1.1,1,2.6,1.3,3c0.1,0.2,0.4,0.3,0.7,0.3v0.2c-0.3,0-0.5,0-1.1,0
			c-0.8,0-1.4,0.1-1.6,0.1v-0.2c0.3,0,0.7-0.1,0.7-0.4c0-0.3-0.3-0.9-0.3-1.1l-0.5-1.3c-0.4-0.1-0.9-0.1-1.3-0.1h-0.5
			c-0.4,0-1,0-1.4,0.1l-0.5,1.2c-0.3,0.6-0.3,0.8-0.3,1c0,0.3,0.1,0.5,1.1,0.6v0.2c-0.3,0-0.7-0.1-1.3-0.1c-0.5,0-0.9,0-1.2,0.1
			v-0.2c0.4-0.1,0.6-0.3,0.6-0.3c0.3-0.3,1.2-2.2,1.4-2.8l1.1-2.6c0.4-0.9,0.8-2,1.1-2.9h0.2c0.2,0.8,0.3,1,0.4,1.4L119.8,30z
			 M116.3,29.6c-0.1,0.4-0.2,0.4-0.2,0.5c0.5,0.1,1.2,0.1,1.2,0.1l0.6,0c0.1,0,0.8,0,1,0c-0.1-0.2-0.2-0.7-0.3-0.8l-0.5-1.2
			c-0.1-0.2-0.5-1.2-0.6-1.5c-0.2,0.3-0.3,0.8-0.4,1L116.3,29.6z"/>
		<path stroke="#000000" stroke-width="0.8119" d="M125.8,29.5c-0.5,0-1,0-1.5-0.1l0,1.6c0,0.5,0,1.7,0.2,2c0.1,0.2,0.2,0.3,0.8,0.4
			c0.1,0,0.2,0,0.2,0.1c0,0.1,0,0.1-0.1,0.1c0,0-0.3,0-0.6-0.1c-0.3,0-0.6-0.1-0.7-0.1c-0.3,0-0.6,0-0.9,0c-0.3,0-0.5,0-0.5,0
			c-0.1,0-0.1,0-0.1-0.1c0-0.1,0-0.1,0.3-0.2c0.5-0.1,0.7-0.3,0.7-2.4v-3c0-2.7,0-2.7-1-2.8c0-0.1,0-0.2,0-0.2c0.4,0,0.7,0,0.9,0
			c0.3,0,2.1-0.2,2.4-0.2c2,0,3,1.2,3,2.3c0,0.9-0.6,1.7-1.9,2.2l0.3,0.5c1.3,1.9,2.5,3.8,3.9,3.9c0.1,0,0.1,0,0.1,0.1
			c0,0.1,0,0.1-0.3,0.1c-1.8,0-3.2-1.7-4.4-3.4L125.8,29.5z M125.6,25.2c-0.3,0-1,0.1-1.1,0.3c-0.1,0.3-0.1,2.4-0.1,3.6
			c0.2,0,0.5,0.1,1.1,0.1c0.4,0,2.3,0,2.3-1.8C127.8,26.6,127.2,25.2,125.6,25.2z"/>
		<path stroke="#000000" stroke-width="0.8119" d="M135.6,27.5c0.3-0.4,0.9-1.4,0.9-1.8c0-0.5-0.6-0.5-0.9-0.4l0-0.3l0.6,0
			c0.1,0,0.8,0,0.9,0c0.2,0,1.1,0,1.3,0l0,0.3c-0.8,0-1.1,0.2-2.3,2.1c-0.5,0.7-1,1.5-1.4,2.2l0,2.4c0,1.1,0,1.2,0.5,1.3
			c0.2,0.1,0.6,0.1,0.7,0.2l0,0.2c-0.5,0-1.1-0.1-1.7-0.1c-0.2,0-0.6,0.1-0.8,0.1c-0.3,0-0.6,0-0.8,0v-0.2c0.3,0,0.7-0.1,0.9-0.3
			c0.2-0.2,0.2-0.2,0.2-2.7c0-0.4,0-0.7,0-0.8l-0.5-0.8c-0.5-0.7-1.1-1.5-1.4-1.8c-1.3-1.7-1.4-1.7-2.2-1.8l0-0.2h0.7
			c0.1,0,0.8,0,1,0c0.4,0,0.8,0,1.3,0h0.3l0,0.3c-0.5,0-0.8,0.1-0.8,0.3c0,0.3,2.3,3.2,2.6,3.6c0.1-0.2,0.2-0.2,0.6-0.9L135.6,27.5z
			"/>
		<path stroke="#000000" stroke-width="0.8119" d="M147.5,30.4c-0.3-0.2-1-0.8-1.9-1.5c0,0.7,0,3.6,0.1,4c0.2,0.4,1.1,0.6,1.2,0.6
			v0.2c-0.3,0-0.7-0.1-1.1-0.1c-0.4,0-0.8,0-1.3,0c-0.9,0-1,0-1.3,0v-0.3c0.6,0,0.9-0.1,1-0.6c0.2-0.8,0.2-3.6,0.2-4.4
			c0-1,0-1.9,0-2.9c0-1.8-0.1-1.9-1.1-2l0-0.3c0.3,0,1.4,0.1,1.9,0.1c0.9,0,1.3-0.1,1.7-0.1v0.3c-0.3,0-0.9,0.1-1.1,0.4
			c-0.2,0.3-0.2,3-0.2,3.6v1c0.2-0.2,0.7-0.6,1-1l2-1.9c0.4-0.4,0.8-0.8,1.1-1.1c0.1-0.1,0.2-0.3,0.2-0.5c0-0.4-0.5-0.4-0.8-0.4
			l0-0.3l1.3,0c0.6,0,1.2,0,1.7-0.1l0,0.3c-0.3,0-0.7,0.1-1.3,0.6c-0.4,0.3-2.2,1.9-2.4,2.1l-1.1,1.1c-0.4,0.4-0.5,0.5-0.8,0.8
			l3,2.5c1.7,1.4,2.7,2.3,3.7,2.8l0,0.3c-0.1,0-0.3,0-0.5-0.1c-0.2,0-0.4,0-0.8,0c-0.7,0-1.4,0.1-1.8,0.1l0-0.2c0.1,0,0.1,0,0.3-0.1
			c0.1,0,0.3-0.1,0.3-0.2c0-0.2-1.4-1.4-1.8-1.7L147.5,30.4z"/>
		<path stroke="#000000" stroke-width="0.8119" d="M158.1,24.8c2.2,0,4.4,1.7,4.4,4.5c0,2.4-1.9,4.5-4.7,4.5c-2.9,0-4.4-2.5-4.4-4.5
			C153.5,26.8,155.7,24.8,158.1,24.8z M158.5,33.3c1.4,0,3.1-1,3.1-3.5c0-2.5-1.7-4.5-3.8-4.5c-1.7,0-3.2,1.3-3.2,3.5
			C154.5,31.2,156.4,33.3,158.5,33.3z"/>
		<path stroke="#000000" stroke-width="0.8119" d="M170.9,33.3c-0.7,0.2-1.6,0.5-2.6,0.5c-2.2,0-4.6-1.6-4.6-4.5
			c0-3.1,2.7-4.4,4.9-4.4c0.9,0,1.6,0.2,1.8,0.3c0.1,0,0.4,0.1,0.6,0.1c0,0,0.2,0,0.3,0c0,0,0.1,0.1,0.1,0.1c0,0-0.1,0.4-0.1,0.4
			c-0.1,0.4-0.2,0.8-0.3,1.3c-0.2,0-0.2-0.1-0.2-0.3c0-0.4-0.1-0.5-0.1-0.6c-0.2-0.3-1.3-0.9-2.4-0.9c-1.9,0-3.4,1.5-3.4,4.1
			c0,3.3,2.7,4.2,3.7,4.2c1.5,0,2-0.8,2.5-1.6c0.1-0.2,0.1-0.2,0.2-0.2c0.1,0,0.1,0,0.1,0.1c0,0.1-0.1,0.4-0.1,0.5L170.9,33.3z"/>
		<path stroke="#000000" stroke-width="0.8119" d="M173.3,27.2c0-1.7-0.1-1.9-1-2l0-0.2c0.2,0,0.5,0,0.7,0c0.3,0,1,0.1,1.4,0l1,0
			l0,0.2l-0.4,0.1c-0.6,0.1-0.6,0.1-0.8,1.2c-0.1,0.5-0.1,0.9-0.1,1.4c0,0.3,0,0.7,0,1.1h3.2c2.3,0,2.6,0,2.9-0.1l0-1.4
			c0-1.6,0-1.7-0.1-1.9c-0.1-0.3-0.3-0.3-1-0.5l0-0.2c0.1,0,0.3,0,0.6,0.1c0.3,0,0.6,0,0.9,0c0.1,0,0.4,0,0.7,0c0.3,0,0.6,0,0.7,0
			l0,0.2c-0.8,0.1-0.8,0.4-0.9,2.5l-0.1,3.4c0,2.2,0.1,2.3,1,2.4l0,0.2c-0.4-0.1-0.9-0.1-1.3-0.1c-0.2,0-0.8,0.1-1.5,0.1l0-0.2
			c0.9-0.1,1-0.3,1-1.8c0-0.5,0.1-1.5,0-2.1c-1.3,0-4.1-0.1-6,0c0,0.3,0,1.6,0,2.3c0,0.5,0,1,0.1,1.2c0.1,0.3,0.2,0.4,1,0.5l0,0.2
			c-0.2,0-0.6,0-0.9-0.1c-0.3,0-0.6,0-0.9,0c-0.4,0-0.6,0-1.3,0.1l-0.1-0.2c0.1,0,0.7-0.1,0.9-0.3c0.2-0.2,0.2-2.8,0.2-3.8
			L173.3,27.2z"/>
		<path stroke="#000000" stroke-width="0.8119" d="M194.2,25.2c-0.1-1.1-0.1-1.6-3-1.6c-0.5,0-1.4,0-1.8,0.1
			c-0.1,0.9-0.1,2.6-0.1,2.9V28c0.8,0.1,1,0.1,1.8,0.1c2.3,0,2.3-0.2,2.3-1l0.3,0c0,0.3,0,0.4,0,1c0,0.1,0,0.8,0,1.7h-0.3
			c0-0.2,0-0.8-0.1-0.9c-0.2-0.2-1.3-0.3-2.5-0.3c-0.5,0-1,0-1.4,0c0,0.8,0,1.7,0,2.7c0,1.7,0,1.9,1.7,2.1v0.3c-0.3,0-0.7,0-1.7,0
			h-0.8c-0.1,0-0.9,0-1.5,0.1l0-0.3c0.8-0.1,0.9-0.4,1-0.7c0.2-1,0.2-2.5,0.2-4.4c0-0.8,0-3.7-0.2-4.3c-0.2-0.4-0.5-0.5-1.1-0.5
			v-0.3h1c0.4,0,1.1,0.1,1.5,0.1c0.6,0,1.3,0,1.6,0c1.4,0,2.8-0.1,3.7-0.1c-0.1,0.7-0.1,1.3,0,2H194.2z"/>
		<path stroke="#000000" stroke-width="0.8119" d="M200.2,24.8c2.2,0,4.4,1.7,4.4,4.5c0,2.4-1.9,4.5-4.7,4.5c-2.9,0-4.4-2.5-4.4-4.5
			C195.6,26.8,197.8,24.8,200.2,24.8z M200.6,33.3c1.4,0,3.1-1,3.1-3.5c0-2.5-1.7-4.5-3.8-4.5c-1.7,0-3.2,1.3-3.2,3.5
			C196.6,31.2,198.5,33.3,200.6,33.3z"/>
		<path stroke="#000000" stroke-width="0.8119" d="M205.5,25c0.3,0,0.7,0,1,0c1.1,0,1.1,0,2.2-0.1l0.1,0.2c-0.9,0.1-1,0.3-1.2,0.5
			c-0.2,0.4-0.2,2.5-0.2,3.2c0,1.3,0,2.2,0.1,2.8c0.3,1.6,2.3,1.7,2.7,1.7c0.6,0,2.4-0.2,2.8-1.4c0.3-1,0.4-3.1,0.4-4.2
			c0-2.4-0.3-2.4-1.2-2.4l0-0.2c0.2,0,0.5,0,0.7,0c0.5,0,1.4,0,1.9,0v0.3c-0.9,0-0.9,0.1-0.9,1.3c0,3.4-0.2,5-0.6,5.8
			c-0.7,1.3-2.7,1.4-3.5,1.4c-1.6,0-3.4-0.7-3.4-2.8c0-0.5,0-2.5,0-2.9c0-1,0-2-0.2-2.5c-0.1-0.2-0.1-0.2-0.8-0.3L205.5,25z"/>
		<path stroke="#000000" stroke-width="0.8119" d="M218.9,28.3c-0.2-0.2-1.8-1.7-1.9-1.7l-0.1,4.1c-0.1,2.5,0.1,2.5,1.6,2.8
			c0,0.1,0,0.1,0,0.3c-0.1,0-0.4,0-0.7,0c-0.3,0-0.5,0-0.7,0c-0.1,0-0.4,0-0.7,0c-0.3,0-0.7,0.1-0.8,0.1c-0.1,0-0.2,0-0.2-0.2
			c0-0.1,0-0.1,0.2-0.1c0.7-0.1,0.8-0.2,0.8-2.2l0-3.2c0-1.7,0-2.6-1.2-2.8v-0.3c0.6,0.1,0.9,0.1,1.2,0.1l0.6,0
			c0.9,1.1,2.5,2.6,2.9,3.1l4,3.8c0.1-0.8,0.1-1.7,0.1-2.5v-1.3c0-2.6-0.2-2.6-1.4-2.8l0.1-0.2c0.1,0,0.2,0,0.3,0c0.1,0,0.6,0,0.9,0
			c0.3,0,0.6,0,0.6,0h0.9l0,0.2c-0.6,0.1-0.7,0.2-0.8,0.6c-0.2,0.9-0.2,4-0.2,5.2c0,0.8,0,2.1,0.1,2.8l-0.3,0
			c-0.5-1-2.2-2.6-2.8-3.2L218.9,28.3z"/>
		<path stroke="#000000" stroke-width="0.8119" d="M230.2,33.6c-0.3,0-1.4,0-1.6,0c-0.4,0-2,0-2.4,0v-0.2c0.4,0,0.7-0.1,0.9-0.3
			c0.2-0.4,0.2-2.7,0.2-3.3c0-2.3,0-3.8-0.2-4.2c-0.1-0.2-0.4-0.2-0.7-0.2l0-0.3c1,0,2,0,3-0.1c0.4,0,0.6-0.1,1-0.1
			c2.6,0,5.1,1.6,5.1,4.3C235.3,31.7,233.3,33.6,230.2,33.6z M230,25.2c-0.6,0-1.2,0.1-1.7,0.3c-0.1,0.6-0.1,4.4-0.1,5.5
			c0,0.3,0,1.6,0,1.9c0.7,0.2,1.1,0.4,1.9,0.4c3,0,4-2.2,4-4.1C234.1,26.6,231.9,25.2,230,25.2z"/>
		<path stroke="#000000" stroke-width="0.8119" d="M241.1,30c0.4,1.1,1,2.6,1.3,3c0.2,0.2,0.4,0.3,0.7,0.3v0.2c-0.3,0-0.5,0-1.1,0
			c-0.8,0-1.4,0.1-1.6,0.1v-0.2c0.3,0,0.7-0.1,0.7-0.4c0-0.3-0.2-0.9-0.3-1.1l-0.5-1.3c-0.4-0.1-0.9-0.1-1.3-0.1h-0.5
			c-0.4,0-1,0-1.4,0.1l-0.5,1.2c-0.3,0.6-0.3,0.8-0.3,1c0,0.3,0.1,0.5,1.1,0.6v0.2c-0.3,0-0.7-0.1-1.3-0.1c-0.5,0-0.9,0-1.2,0.1
			v-0.2c0.4-0.1,0.6-0.3,0.6-0.3c0.3-0.3,1.2-2.2,1.4-2.8l1.1-2.6c0.4-0.9,0.8-2,1.1-2.9h0.2c0.2,0.8,0.3,1,0.5,1.4L241.1,30z
			 M237.6,29.6c-0.1,0.4-0.2,0.4-0.2,0.5c0.5,0.1,1.2,0.1,1.2,0.1l0.6,0c0.1,0,0.8,0,1,0c0-0.2-0.2-0.7-0.3-0.8l-0.5-1.2
			c-0.1-0.2-0.5-1.2-0.6-1.5c-0.2,0.3-0.3,0.8-0.4,1L237.6,29.6z"/>
		<path stroke="#000000" stroke-width="0.8119" d="M242.1,26.3c0.3-0.7,0.3-0.9,0.6-1.6c0.2,0.1,0.2,0.2,0.5,0.3s0.9,0.1,2,0.1h3.4
			c0.2,0,1.4,0,1.6,0c0.4,0,0.4-0.1,0.6-0.2c0.1,0.1,0.1,0.1,0.2,0.2c-0.2,0.4-0.3,1.1-0.4,1.4l-0.3,0c0-0.3,0-0.3,0.1-0.6
			c-0.2-0.2-0.6-0.4-2.1-0.4c-0.9,0-1,0-1,0.3c0,0.5-0.1,1.1-0.1,2.1c0,0.5,0,2.8,0,3.2c0,2.3,0,2.3,1.1,2.4c0.3,0,0.3,0,0.3,0.1
			c0,0,0,0.1,0,0.2c-0.1,0-0.2,0-0.3,0c-0.1,0-0.4,0-0.7,0c-0.3,0-0.6,0-0.7,0c-0.3,0-0.6,0-1.4,0.1c-0.3,0.1-0.4,0.1-0.5,0.1
			c-0.1,0-0.2-0.1-0.2-0.2c0.1,0,0.2-0.1,0.4-0.1c1-0.2,1-0.3,1-0.8c0,0,0-0.6,0.1-0.8c0-0.2,0-1.5,0-2.8c0-2.5,0-3.1-0.2-3.5
			c-0.3,0-0.6-0.1-1.3-0.1c-1.9,0-2,0.3-2.3,0.9L242.1,26.3z"/>
		<path stroke="#000000" stroke-width="0.8119" d="M253.7,30c0,0.6,0,1.8,0,2.3c0,0.8,0,1,1.3,1.1l0,0.3c-0.2,0-1.5,0-1.8,0
			c-0.5,0-1.7,0-1.9,0l0-0.3c1-0.1,1.2-0.2,1.3-0.6c0.2-0.6,0.2-2.7,0.2-3.5c0-1.3,0-1.8-0.1-2.9c0-0.9-0.1-1.2-1.4-1.2V25
			c0.3,0,0.6,0,0.9,0c0.3,0,0.7,0,0.9,0c0.2,0,0.6,0,1,0c0.4,0,0.7,0,0.9,0v0.3c-0.8,0-1,0.1-1.1,0.3c-0.2,0.4-0.2,2.6-0.2,3.2V30z"
			/>
		<path stroke="#000000" stroke-width="0.8119" d="M260.6,24.8c2.2,0,4.4,1.7,4.4,4.5c0,2.4-1.9,4.5-4.7,4.5c-2.9,0-4.4-2.5-4.4-4.5
			C255.9,26.8,258.1,24.8,260.6,24.8z M260.9,33.3c1.4,0,3.1-1,3.1-3.5c0-2.5-1.7-4.5-3.8-4.5c-1.7,0-3.2,1.3-3.2,3.5
			C257,31.2,258.8,33.3,260.9,33.3z"/>
		<path stroke="#000000" stroke-width="0.8119" d="M269.3,28.3c-0.2-0.2-1.8-1.7-1.9-1.7l-0.1,4.1c-0.1,2.5,0.1,2.5,1.6,2.8
			c0,0.1,0,0.1,0,0.3c-0.1,0-0.4,0-0.6,0c-0.3,0-0.5,0-0.7,0c-0.1,0-0.4,0-0.7,0c-0.3,0-0.7,0.1-0.8,0.1c-0.1,0-0.2,0-0.2-0.2
			c0-0.1,0-0.1,0.2-0.1c0.7-0.1,0.8-0.2,0.8-2.2l0-3.2c0-1.7,0-2.6-1.2-2.8v-0.3c0.6,0.1,0.9,0.1,1.2,0.1l0.6,0
			c0.9,1.1,2.5,2.6,2.9,3.1l4,3.8c0.1-0.8,0.1-1.7,0.1-2.5v-1.3c0-2.6-0.2-2.6-1.4-2.8l0.1-0.2c0.1,0,0.2,0,0.3,0c0.1,0,0.6,0,0.9,0
			c0.3,0,0.6,0,0.6,0h0.9l0,0.2c-0.6,0.1-0.7,0.2-0.8,0.6c-0.2,0.9-0.2,4-0.2,5.2c0,0.8,0,2.1,0.1,2.8l-0.3,0
			c-0.5-1-2.2-2.6-2.8-3.2L269.3,28.3z"/>
	</g>
</g>
</svg>
