<?xml version="1.0" encoding="utf-8"?>
<!-- Generator: Adobe Illustrator 19.1.0, SVG Export Plug-In . SVG Version: 6.00 Build 0)  -->
<!DOCTYPE svg PUBLIC "-//W3C//DTD SVG 1.1//EN" "http://www.w3.org/Graphics/SVG/1.1/DTD/svg11.dtd">
<svg version="1.1" id="soundControl" xmlns="http://www.w3.org/2000/svg" xmlns:xlink="http://www.w3.org/1999/xlink" x="0px"
	 y="0px" viewBox="0 0 64.5 55" enable-background="new 0 0 64.5 55" xml:space="preserve">
<path id="speaker" d="M29.9,27.5c0,6.3,0,12.6,0,18.9c0,0.6,0,1.2-0.2,1.7c-0.5,1.4-2.1,1.9-3.3,1.1c-0.4-0.3-0.8-0.6-1.1-1
	c-3.6-3.6-7.1-7.1-10.7-10.7c-0.4-0.4-1.1-0.7-1.7-0.7c-2.6-0.1-5.3,0-7.9,0c-2,0-2.9-0.9-2.9-2.9c0-4.3,0-8.5,0-12.8
	c0-2,0.9-2.9,2.9-2.9c2.6,0,5.3,0,7.9,0c0.6,0,1.3-0.3,1.7-0.7c3.7-3.6,7.3-7.2,10.9-10.8c0.7-0.7,1.4-1.4,2.5-1.2
	c1.3,0.2,2,1.2,2,2.9C29.9,14.7,29.9,21.1,29.9,27.5z"/>
<path id="innermostSoundbar" d="M62.5,27.5c0,11-6.7,21.3-16.6,25.5c-1.4,0.6-2.7,0.2-3.3-1c-0.6-1.2-0.1-2.4,1.2-3.1
	c0.2-0.1,0.4-0.2,0.6-0.3c4.3-2,7.8-5.1,10.2-9.2c5-8.6,4.3-18.5-1.8-26.4c-2.2-2.9-5-5-8.3-6.6c-0.3-0.1-0.6-0.3-0.8-0.4
	c-1.2-0.8-1.6-2-1-3.1c0.6-1.1,1.9-1.6,3.2-1c4.3,1.9,7.9,4.7,10.8,8.4C60.5,15.4,62.5,21.1,62.5,27.5z"/>
<path id="middleSoundbar" d="M53.2,28.1c-0.5,7.1-3.9,13-11,16.4c-1.3,0.6-2.6,0.2-3.2-0.9c-0.6-1.2-0.3-2.5,1-3.1
	c2.8-1.4,5.1-3.3,6.7-6.1c3.7-6.4,1.5-15-4.9-18.8c-0.6-0.4-1.2-0.7-1.8-1c-1.2-0.7-1.6-1.9-1.1-3.1c0.6-1.2,1.9-1.6,3.2-1
	c4.4,1.9,7.4,5.1,9.4,9.4C52.7,22.3,53.2,24.9,53.2,28.1z"/>
<path id="outermostSoundbar" d="M43.9,28c-0.3,3.3-1.8,6.2-5.3,7.9c-1.3,0.6-2.6,0.3-3.2-0.9c-0.6-1.1-0.4-2.3,0.9-3.1
	c1.7-1.1,3.1-2.3,3-4.6c-0.1-1.4-0.6-2.6-1.8-3.4c-0.4-0.3-0.8-0.5-1.3-0.8c-1.1-0.8-1.4-2-0.8-3c0.6-1.1,1.8-1.4,3.1-0.9
	C41.7,20.5,43.9,23.9,43.9,28z"/>
</svg>
